<svg xmlns="http://www.w3.org/2000/svg" width="100" height="100" viewBox="0 0 100 100"><g fill="#FFF"><path d="M49.771 15.886c-2.97 0-5.387 2.393-5.387 5.332 0 2.942 2.417 5.335 5.387 5.335 2.971 0 5.388-2.393 5.388-5.335-.001-2.94-2.418-5.332-5.388-5.332z"/><path d="M0 0v100h100V0H0zm60 85.501C60 87.997 54.589 91 49.17 91h-.785C42.964 91 39 87.995 39 85.501v-43.03C39 39.975 42.964 39 48.384 39h.785C54.589 39 60 39.976 60 42.471v43.03zM49.771 31.215c-5.567 0-10.096-4.484-10.096-9.998 0-5.51 4.529-9.994 10.096-9.994 5.568 0 10.097 4.484 10.097 9.994-.001 5.514-4.529 9.998-10.097 9.998z"/></g></svg>