<svg xmlns="http://www.w3.org/2000/svg" width="100" height="100" viewBox="0 0 100 100"><path fill="#FFF" d="M0 0v101h100V0H0zm84.114 72.127a8.133 8.133 0 0 1 0 11.502l-.461.461a8.132 8.132 0 0 1-11.499 0L51.223 63.157 30.292 84.09a8.131 8.131 0 0 1-11.5 0l-.461-.461a8.133 8.133 0 0 1 0-11.5l20.932-20.932L17.41 29.346a8.133 8.133 0 0 1 0-11.5l.461-.461a8.131 8.131 0 0 1 11.5 0l21.851 21.852 21.852-21.852a8.13 8.13 0 0 1 11.499 0l.461.461a8.133 8.133 0 0 1 0 11.502l-21.85 21.85 20.93 20.929z"/><path fill="#FFF" d="M91 0h12v100H91z"/></svg>