<svg xmlns="http://www.w3.org/2000/svg" width="100" height="100" viewBox="0 0 100 100"><g fill="#FFF"><path d="M67.513 75.716a4.943 4.943 0 0 0-4.938 4.938 4.943 4.943 0 0 0 4.938 4.939 4.944 4.944 0 0 0 4.938-4.939 4.944 4.944 0 0 0-4.938-4.938zM36.688 60h36.1c.693 0 1.507-1 2.368-4H34.321c.86 3 1.672 4 2.367 4zm5.842 15.716a4.943 4.943 0 0 0-4.938 4.938 4.943 4.943 0 0 0 4.938 4.939 4.944 4.944 0 0 0 4.938-4.939 4.943 4.943 0 0 0-4.938-4.938zM29.172 38h51.131c.291-2 .571-3 .836-4H28.336c.264 1 .545 2 .836 4zm2.775 11H77.53c.385-2 .769-3 1.146-5H30.801c.377 2 .761 3 1.146 5z"/><path d="M0 0v101h100V0H0zm42.53 89.911c-5.104 0-9.256-4.153-9.256-9.258 0-5.104 4.152-9.256 9.256-9.256s9.256 4.152 9.256 9.256c0 5.105-4.152 9.258-9.256 9.258zm24.983 0c-5.104 0-9.257-4.153-9.257-9.258 0-5.104 4.152-9.256 9.257-9.256 5.104 0 9.256 4.152 9.256 9.256 0 5.105-4.153 9.258-9.256 9.258zm21.439-60.079C83.036 67.412 75.67 67 73.249 67H36.227c-4.965 0-8.464-5.332-12.078-19.523-2.215-8.699-3.57-16.944-3.626-17.304a3.68 3.68 0 0 1 .017-1.114C19.676 26.737 17.835 23 15.277 23h-5.96c-1.987 0-3.598-1.513-3.598-3.5 0-1.988 1.611-3.5 3.598-3.5h5.959c6.229 0 10.021 6 11.826 10h58.294c1.052 0 2.051.433 2.734 1.232.685.799.985 1.56.822 2.6z"/><path d="M91 0h12v100H91z"/></g></svg>