<svg xmlns="http://www.w3.org/2000/svg" width="100" height="100" viewBox="0 0 100 100"><path fill="#FFF" d="M0 0v101h100V0H0zm88.639 58.199c-2.382 10.542-8.673 19.482-17.719 25.177a40.44 40.44 0 0 1-21.56 6.24h-.001c-10.196 0-19.934-3.857-27.234-10.688l.023 6.913c.005 1.864-.882 3.549-2.262 4.932C18.816 91.846 17.563 92 16.26 92h-.355c-3.354 0-5.964-3.322-5.972-6.535L9.721 57l26.738.016c3.097 0 5.541 2.521 5.541 5.979v.356c0 3.467-2.435 5.896-5.501 5.908l-7.507.2c5.388 5.53 12.874 8.935 20.691 8.937 5.423-.002 10.692-1.709 15.295-4.605 13.471-8.482 17.519-26.43 9.039-39.904-5.312-8.441-14.472-13.524-24.486-13.524a28.732 28.732 0 0 0-15.15 4.292l-1.221.741-5.974-9.496 1.231-.769a39.944 39.944 0 0 1 21.092-6.025c13.901 0 26.607 6.999 33.984 18.722 5.697 9.052 7.526 19.837 5.146 30.371z"/><path fill="#FFF" d="M91 0h12v100H91z"/></svg>